<mxfile host="Electron" modified="2023-12-14T14:59:55.723Z" agent="Mozilla/5.0 (Windows NT 10.0; Win64; x64) AppleWebKit/537.36 (KHTML, like Gecko) draw.io/22.1.2 Chrome/114.0.5735.289 Electron/25.9.4 Safari/537.36" etag="HgKkc4aZ8a4E8ELTfEGr" version="22.1.2" type="device">
  <diagram name="Page-1" id="AY0MOmOfjCAA4-cnchE_">
    <mxGraphModel dx="1098" dy="995" grid="1" gridSize="10" guides="1" tooltips="1" connect="1" arrows="1" fold="1" page="1" pageScale="1" pageWidth="850" pageHeight="1100" math="0" shadow="0">
      <root>
        <mxCell id="0" />
        <mxCell id="1" parent="0" />
        <mxCell id="Pf9z77ewuEOddHm5V-Mr-5" style="edgeStyle=orthogonalEdgeStyle;rounded=0;orthogonalLoop=1;jettySize=auto;html=1;entryX=0.5;entryY=0;entryDx=0;entryDy=0;" edge="1" parent="1" source="Pf9z77ewuEOddHm5V-Mr-1" target="Pf9z77ewuEOddHm5V-Mr-4">
          <mxGeometry relative="1" as="geometry" />
        </mxCell>
        <mxCell id="Pf9z77ewuEOddHm5V-Mr-8" value="/4" style="edgeLabel;html=1;align=center;verticalAlign=middle;resizable=0;points=[];" vertex="1" connectable="0" parent="Pf9z77ewuEOddHm5V-Mr-5">
          <mxGeometry x="-0.3429" y="2" relative="1" as="geometry">
            <mxPoint as="offset" />
          </mxGeometry>
        </mxCell>
        <mxCell id="Pf9z77ewuEOddHm5V-Mr-1" value="&lt;font color=&quot;#66cc00&quot;&gt;&lt;span style=&quot;font-size: 14px;&quot;&gt;&lt;b&gt;in_0&lt;/b&gt;&lt;/span&gt;&lt;/font&gt;" style="text;html=1;align=center;verticalAlign=middle;resizable=0;points=[];autosize=1;strokeColor=none;fillColor=none;" vertex="1" parent="1">
          <mxGeometry x="150" y="50" width="50" height="30" as="geometry" />
        </mxCell>
        <mxCell id="Pf9z77ewuEOddHm5V-Mr-3" value="&lt;span style=&quot;font-size: 14px;&quot;&gt;&lt;b style=&quot;&quot;&gt;&lt;font color=&quot;#ff0000&quot;&gt;out_0&lt;/font&gt;&lt;/b&gt;&lt;/span&gt;" style="text;html=1;align=center;verticalAlign=middle;resizable=0;points=[];autosize=1;strokeColor=none;fillColor=none;" vertex="1" parent="1">
          <mxGeometry x="355" y="930" width="60" height="30" as="geometry" />
        </mxCell>
        <mxCell id="Pf9z77ewuEOddHm5V-Mr-10" style="edgeStyle=orthogonalEdgeStyle;rounded=0;orthogonalLoop=1;jettySize=auto;html=1;entryX=0.75;entryY=0;entryDx=0;entryDy=0;" edge="1" parent="1" source="Pf9z77ewuEOddHm5V-Mr-4" target="Pf9z77ewuEOddHm5V-Mr-21">
          <mxGeometry relative="1" as="geometry">
            <mxPoint x="175" y="270" as="targetPoint" />
          </mxGeometry>
        </mxCell>
        <mxCell id="Pf9z77ewuEOddHm5V-Mr-11" value="/8" style="edgeLabel;html=1;align=center;verticalAlign=middle;resizable=0;points=[];" vertex="1" connectable="0" parent="Pf9z77ewuEOddHm5V-Mr-10">
          <mxGeometry x="-0.2795" y="2" relative="1" as="geometry">
            <mxPoint as="offset" />
          </mxGeometry>
        </mxCell>
        <mxCell id="Pf9z77ewuEOddHm5V-Mr-25" style="edgeStyle=orthogonalEdgeStyle;rounded=0;orthogonalLoop=1;jettySize=auto;html=1;entryX=0.75;entryY=0;entryDx=0;entryDy=0;" edge="1" parent="1" source="Pf9z77ewuEOddHm5V-Mr-4" target="Pf9z77ewuEOddHm5V-Mr-22">
          <mxGeometry relative="1" as="geometry">
            <Array as="points">
              <mxPoint x="175" y="280" />
              <mxPoint x="285" y="280" />
            </Array>
          </mxGeometry>
        </mxCell>
        <mxCell id="Pf9z77ewuEOddHm5V-Mr-26" style="edgeStyle=orthogonalEdgeStyle;rounded=0;orthogonalLoop=1;jettySize=auto;html=1;entryX=0.75;entryY=0;entryDx=0;entryDy=0;" edge="1" parent="1" source="Pf9z77ewuEOddHm5V-Mr-4" target="Pf9z77ewuEOddHm5V-Mr-23">
          <mxGeometry relative="1" as="geometry">
            <Array as="points">
              <mxPoint x="175" y="280" />
              <mxPoint x="405" y="280" />
            </Array>
          </mxGeometry>
        </mxCell>
        <mxCell id="Pf9z77ewuEOddHm5V-Mr-27" style="edgeStyle=orthogonalEdgeStyle;rounded=0;orthogonalLoop=1;jettySize=auto;html=1;entryX=0.75;entryY=0;entryDx=0;entryDy=0;" edge="1" parent="1" source="Pf9z77ewuEOddHm5V-Mr-4" target="Pf9z77ewuEOddHm5V-Mr-24">
          <mxGeometry relative="1" as="geometry">
            <Array as="points">
              <mxPoint x="175" y="280" />
              <mxPoint x="525" y="280" />
            </Array>
          </mxGeometry>
        </mxCell>
        <mxCell id="Pf9z77ewuEOddHm5V-Mr-4" value="&lt;font style=&quot;font-size: 32px;&quot;&gt;&lt;b style=&quot;font-size: 22px;&quot;&gt;||&lt;/b&gt;&lt;/font&gt;" style="ellipse;whiteSpace=wrap;html=1;aspect=fixed;" vertex="1" parent="1">
          <mxGeometry x="155" y="150" width="40" height="40" as="geometry" />
        </mxCell>
        <mxCell id="Pf9z77ewuEOddHm5V-Mr-7" style="edgeStyle=orthogonalEdgeStyle;rounded=0;orthogonalLoop=1;jettySize=auto;html=1;entryX=0;entryY=0;entryDx=0;entryDy=0;" edge="1" parent="1" source="Pf9z77ewuEOddHm5V-Mr-6" target="Pf9z77ewuEOddHm5V-Mr-4">
          <mxGeometry relative="1" as="geometry" />
        </mxCell>
        <mxCell id="Pf9z77ewuEOddHm5V-Mr-9" value="/4" style="edgeLabel;html=1;align=center;verticalAlign=middle;resizable=0;points=[];" vertex="1" connectable="0" parent="Pf9z77ewuEOddHm5V-Mr-7">
          <mxGeometry x="-0.5262" y="-1" relative="1" as="geometry">
            <mxPoint as="offset" />
          </mxGeometry>
        </mxCell>
        <mxCell id="Pf9z77ewuEOddHm5V-Mr-6" value="&#39;0000&#39;" style="text;html=1;strokeColor=none;fillColor=none;align=center;verticalAlign=middle;whiteSpace=wrap;rounded=0;" vertex="1" parent="1">
          <mxGeometry x="70" y="100" width="60" height="30" as="geometry" />
        </mxCell>
        <mxCell id="Pf9z77ewuEOddHm5V-Mr-12" style="edgeStyle=orthogonalEdgeStyle;rounded=0;orthogonalLoop=1;jettySize=auto;html=1;entryX=0.5;entryY=0;entryDx=0;entryDy=0;" edge="1" parent="1" source="Pf9z77ewuEOddHm5V-Mr-14" target="Pf9z77ewuEOddHm5V-Mr-17">
          <mxGeometry relative="1" as="geometry" />
        </mxCell>
        <mxCell id="Pf9z77ewuEOddHm5V-Mr-13" value="/4" style="edgeLabel;html=1;align=center;verticalAlign=middle;resizable=0;points=[];" vertex="1" connectable="0" parent="Pf9z77ewuEOddHm5V-Mr-12">
          <mxGeometry x="-0.3429" y="2" relative="1" as="geometry">
            <mxPoint as="offset" />
          </mxGeometry>
        </mxCell>
        <mxCell id="Pf9z77ewuEOddHm5V-Mr-14" value="&lt;font color=&quot;#66cc00&quot;&gt;&lt;span style=&quot;font-size: 14px;&quot;&gt;&lt;b&gt;in_1&lt;/b&gt;&lt;/span&gt;&lt;/font&gt;" style="text;html=1;align=center;verticalAlign=middle;resizable=0;points=[];autosize=1;strokeColor=none;fillColor=none;" vertex="1" parent="1">
          <mxGeometry x="680" y="180" width="50" height="30" as="geometry" />
        </mxCell>
        <mxCell id="Pf9z77ewuEOddHm5V-Mr-15" style="edgeStyle=orthogonalEdgeStyle;rounded=0;orthogonalLoop=1;jettySize=auto;html=1;entryX=0.75;entryY=0;entryDx=0;entryDy=0;" edge="1" parent="1" source="Pf9z77ewuEOddHm5V-Mr-17" target="Pf9z77ewuEOddHm5V-Mr-43">
          <mxGeometry relative="1" as="geometry">
            <mxPoint x="705" y="400" as="targetPoint" />
            <Array as="points">
              <mxPoint x="705" y="410" />
              <mxPoint x="576" y="410" />
            </Array>
          </mxGeometry>
        </mxCell>
        <mxCell id="Pf9z77ewuEOddHm5V-Mr-48" style="edgeStyle=orthogonalEdgeStyle;rounded=0;orthogonalLoop=1;jettySize=auto;html=1;entryX=0.75;entryY=0;entryDx=0;entryDy=0;" edge="1" parent="1" source="Pf9z77ewuEOddHm5V-Mr-17" target="Pf9z77ewuEOddHm5V-Mr-42">
          <mxGeometry relative="1" as="geometry">
            <Array as="points">
              <mxPoint x="705" y="410" />
              <mxPoint x="456" y="410" />
            </Array>
          </mxGeometry>
        </mxCell>
        <mxCell id="Pf9z77ewuEOddHm5V-Mr-49" style="edgeStyle=orthogonalEdgeStyle;rounded=0;orthogonalLoop=1;jettySize=auto;html=1;entryX=0.75;entryY=0;entryDx=0;entryDy=0;" edge="1" parent="1" source="Pf9z77ewuEOddHm5V-Mr-17" target="Pf9z77ewuEOddHm5V-Mr-41">
          <mxGeometry relative="1" as="geometry">
            <Array as="points">
              <mxPoint x="705" y="410" />
              <mxPoint x="336" y="410" />
            </Array>
          </mxGeometry>
        </mxCell>
        <mxCell id="Pf9z77ewuEOddHm5V-Mr-50" style="edgeStyle=orthogonalEdgeStyle;rounded=0;orthogonalLoop=1;jettySize=auto;html=1;entryX=0.75;entryY=0;entryDx=0;entryDy=0;" edge="1" parent="1" source="Pf9z77ewuEOddHm5V-Mr-17" target="Pf9z77ewuEOddHm5V-Mr-40">
          <mxGeometry relative="1" as="geometry">
            <Array as="points">
              <mxPoint x="705" y="410" />
              <mxPoint x="211" y="410" />
            </Array>
          </mxGeometry>
        </mxCell>
        <mxCell id="Pf9z77ewuEOddHm5V-Mr-51" value="/8" style="edgeLabel;html=1;align=center;verticalAlign=middle;resizable=0;points=[];" vertex="1" connectable="0" parent="Pf9z77ewuEOddHm5V-Mr-50">
          <mxGeometry x="-0.6206" y="2" relative="1" as="geometry">
            <mxPoint as="offset" />
          </mxGeometry>
        </mxCell>
        <mxCell id="Pf9z77ewuEOddHm5V-Mr-17" value="&lt;font style=&quot;font-size: 32px;&quot;&gt;&lt;b style=&quot;font-size: 22px;&quot;&gt;||&lt;/b&gt;&lt;/font&gt;" style="ellipse;whiteSpace=wrap;html=1;aspect=fixed;" vertex="1" parent="1">
          <mxGeometry x="685" y="280" width="40" height="40" as="geometry" />
        </mxCell>
        <mxCell id="Pf9z77ewuEOddHm5V-Mr-18" style="edgeStyle=orthogonalEdgeStyle;rounded=0;orthogonalLoop=1;jettySize=auto;html=1;entryX=0;entryY=0;entryDx=0;entryDy=0;" edge="1" parent="1" target="Pf9z77ewuEOddHm5V-Mr-17">
          <mxGeometry relative="1" as="geometry">
            <mxPoint x="660" y="245" as="sourcePoint" />
          </mxGeometry>
        </mxCell>
        <mxCell id="Pf9z77ewuEOddHm5V-Mr-19" value="/4" style="edgeLabel;html=1;align=center;verticalAlign=middle;resizable=0;points=[];" vertex="1" connectable="0" parent="Pf9z77ewuEOddHm5V-Mr-18">
          <mxGeometry x="-0.5262" y="-1" relative="1" as="geometry">
            <mxPoint as="offset" />
          </mxGeometry>
        </mxCell>
        <mxCell id="Pf9z77ewuEOddHm5V-Mr-20" value="&#39;0000&#39;" style="text;html=1;strokeColor=none;fillColor=none;align=center;verticalAlign=middle;whiteSpace=wrap;rounded=0;" vertex="1" parent="1">
          <mxGeometry x="595" y="230" width="60" height="30" as="geometry" />
        </mxCell>
        <mxCell id="Pf9z77ewuEOddHm5V-Mr-44" style="edgeStyle=orthogonalEdgeStyle;rounded=0;orthogonalLoop=1;jettySize=auto;html=1;entryX=0.25;entryY=0;entryDx=0;entryDy=0;" edge="1" parent="1" source="Pf9z77ewuEOddHm5V-Mr-21" target="Pf9z77ewuEOddHm5V-Mr-40">
          <mxGeometry relative="1" as="geometry" />
        </mxCell>
        <mxCell id="Pf9z77ewuEOddHm5V-Mr-55" value="/8" style="edgeLabel;html=1;align=center;verticalAlign=middle;resizable=0;points=[];" vertex="1" connectable="0" parent="Pf9z77ewuEOddHm5V-Mr-44">
          <mxGeometry x="0.5255" relative="1" as="geometry">
            <mxPoint as="offset" />
          </mxGeometry>
        </mxCell>
        <mxCell id="Pf9z77ewuEOddHm5V-Mr-21" value="&lt;b&gt;AND&lt;/b&gt;" style="rounded=0;whiteSpace=wrap;html=1;" vertex="1" parent="1">
          <mxGeometry x="120" y="370" width="60" height="20" as="geometry" />
        </mxCell>
        <mxCell id="Pf9z77ewuEOddHm5V-Mr-45" style="edgeStyle=orthogonalEdgeStyle;rounded=0;orthogonalLoop=1;jettySize=auto;html=1;entryX=0.25;entryY=0;entryDx=0;entryDy=0;" edge="1" parent="1" source="Pf9z77ewuEOddHm5V-Mr-22" target="Pf9z77ewuEOddHm5V-Mr-41">
          <mxGeometry relative="1" as="geometry" />
        </mxCell>
        <mxCell id="Pf9z77ewuEOddHm5V-Mr-54" value="/8" style="edgeLabel;html=1;align=center;verticalAlign=middle;resizable=0;points=[];" vertex="1" connectable="0" parent="Pf9z77ewuEOddHm5V-Mr-45">
          <mxGeometry x="0.6465" y="-1" relative="1" as="geometry">
            <mxPoint as="offset" />
          </mxGeometry>
        </mxCell>
        <mxCell id="Pf9z77ewuEOddHm5V-Mr-22" value="&lt;b&gt;AND&lt;/b&gt;" style="rounded=0;whiteSpace=wrap;html=1;" vertex="1" parent="1">
          <mxGeometry x="240" y="370" width="60" height="20" as="geometry" />
        </mxCell>
        <mxCell id="Pf9z77ewuEOddHm5V-Mr-46" style="edgeStyle=orthogonalEdgeStyle;rounded=0;orthogonalLoop=1;jettySize=auto;html=1;entryX=0.25;entryY=0;entryDx=0;entryDy=0;" edge="1" parent="1" source="Pf9z77ewuEOddHm5V-Mr-23" target="Pf9z77ewuEOddHm5V-Mr-42">
          <mxGeometry relative="1" as="geometry" />
        </mxCell>
        <mxCell id="Pf9z77ewuEOddHm5V-Mr-53" value="/8" style="edgeLabel;html=1;align=center;verticalAlign=middle;resizable=0;points=[];" vertex="1" connectable="0" parent="Pf9z77ewuEOddHm5V-Mr-46">
          <mxGeometry x="0.596" y="-3" relative="1" as="geometry">
            <mxPoint as="offset" />
          </mxGeometry>
        </mxCell>
        <mxCell id="Pf9z77ewuEOddHm5V-Mr-23" value="&lt;b&gt;AND&lt;/b&gt;" style="rounded=0;whiteSpace=wrap;html=1;" vertex="1" parent="1">
          <mxGeometry x="360" y="370" width="60" height="20" as="geometry" />
        </mxCell>
        <mxCell id="Pf9z77ewuEOddHm5V-Mr-47" style="edgeStyle=orthogonalEdgeStyle;rounded=0;orthogonalLoop=1;jettySize=auto;html=1;entryX=0.25;entryY=0;entryDx=0;entryDy=0;" edge="1" parent="1" source="Pf9z77ewuEOddHm5V-Mr-24" target="Pf9z77ewuEOddHm5V-Mr-43">
          <mxGeometry relative="1" as="geometry" />
        </mxCell>
        <mxCell id="Pf9z77ewuEOddHm5V-Mr-52" value="/8" style="edgeLabel;html=1;align=center;verticalAlign=middle;resizable=0;points=[];" vertex="1" connectable="0" parent="Pf9z77ewuEOddHm5V-Mr-47">
          <mxGeometry x="0.5455" relative="1" as="geometry">
            <mxPoint as="offset" />
          </mxGeometry>
        </mxCell>
        <mxCell id="Pf9z77ewuEOddHm5V-Mr-24" value="&lt;b&gt;AND&lt;/b&gt;" style="rounded=0;whiteSpace=wrap;html=1;" vertex="1" parent="1">
          <mxGeometry x="480" y="370" width="60" height="20" as="geometry" />
        </mxCell>
        <mxCell id="Pf9z77ewuEOddHm5V-Mr-29" style="edgeStyle=orthogonalEdgeStyle;rounded=0;orthogonalLoop=1;jettySize=auto;html=1;entryX=0.25;entryY=0;entryDx=0;entryDy=0;" edge="1" parent="1" source="Pf9z77ewuEOddHm5V-Mr-28" target="Pf9z77ewuEOddHm5V-Mr-21">
          <mxGeometry relative="1" as="geometry" />
        </mxCell>
        <mxCell id="Pf9z77ewuEOddHm5V-Mr-30" value="/4" style="edgeLabel;html=1;align=center;verticalAlign=middle;resizable=0;points=[];" vertex="1" connectable="0" parent="Pf9z77ewuEOddHm5V-Mr-29">
          <mxGeometry x="-0.52" y="-3" relative="1" as="geometry">
            <mxPoint as="offset" />
          </mxGeometry>
        </mxCell>
        <mxCell id="Pf9z77ewuEOddHm5V-Mr-28" value="x&quot;01&quot;" style="text;html=1;strokeColor=none;fillColor=none;align=center;verticalAlign=middle;whiteSpace=wrap;rounded=0;" vertex="1" parent="1">
          <mxGeometry x="95" y="300" width="60" height="30" as="geometry" />
        </mxCell>
        <mxCell id="Pf9z77ewuEOddHm5V-Mr-32" style="edgeStyle=orthogonalEdgeStyle;rounded=0;orthogonalLoop=1;jettySize=auto;html=1;entryX=0.25;entryY=0;entryDx=0;entryDy=0;" edge="1" parent="1" source="Pf9z77ewuEOddHm5V-Mr-31" target="Pf9z77ewuEOddHm5V-Mr-22">
          <mxGeometry relative="1" as="geometry" />
        </mxCell>
        <mxCell id="Pf9z77ewuEOddHm5V-Mr-37" value="/4" style="edgeLabel;html=1;align=center;verticalAlign=middle;resizable=0;points=[];" vertex="1" connectable="0" parent="Pf9z77ewuEOddHm5V-Mr-32">
          <mxGeometry x="-0.5273" y="2" relative="1" as="geometry">
            <mxPoint as="offset" />
          </mxGeometry>
        </mxCell>
        <mxCell id="Pf9z77ewuEOddHm5V-Mr-31" value="x&quot;02&quot;" style="text;html=1;strokeColor=none;fillColor=none;align=center;verticalAlign=middle;whiteSpace=wrap;rounded=0;" vertex="1" parent="1">
          <mxGeometry x="210" y="300" width="60" height="30" as="geometry" />
        </mxCell>
        <mxCell id="Pf9z77ewuEOddHm5V-Mr-34" style="edgeStyle=orthogonalEdgeStyle;rounded=0;orthogonalLoop=1;jettySize=auto;html=1;entryX=0.25;entryY=0;entryDx=0;entryDy=0;" edge="1" parent="1" source="Pf9z77ewuEOddHm5V-Mr-33" target="Pf9z77ewuEOddHm5V-Mr-23">
          <mxGeometry relative="1" as="geometry" />
        </mxCell>
        <mxCell id="Pf9z77ewuEOddHm5V-Mr-38" value="/4" style="edgeLabel;html=1;align=center;verticalAlign=middle;resizable=0;points=[];" vertex="1" connectable="0" parent="Pf9z77ewuEOddHm5V-Mr-34">
          <mxGeometry x="0.0545" relative="1" as="geometry">
            <mxPoint as="offset" />
          </mxGeometry>
        </mxCell>
        <mxCell id="Pf9z77ewuEOddHm5V-Mr-33" value="x&quot;04&quot;" style="text;html=1;strokeColor=none;fillColor=none;align=center;verticalAlign=middle;whiteSpace=wrap;rounded=0;" vertex="1" parent="1">
          <mxGeometry x="330" y="300" width="60" height="30" as="geometry" />
        </mxCell>
        <mxCell id="Pf9z77ewuEOddHm5V-Mr-36" style="edgeStyle=orthogonalEdgeStyle;rounded=0;orthogonalLoop=1;jettySize=auto;html=1;entryX=0.25;entryY=0;entryDx=0;entryDy=0;" edge="1" parent="1" source="Pf9z77ewuEOddHm5V-Mr-35" target="Pf9z77ewuEOddHm5V-Mr-24">
          <mxGeometry relative="1" as="geometry" />
        </mxCell>
        <mxCell id="Pf9z77ewuEOddHm5V-Mr-39" value="/4" style="edgeLabel;html=1;align=center;verticalAlign=middle;resizable=0;points=[];" vertex="1" connectable="0" parent="Pf9z77ewuEOddHm5V-Mr-36">
          <mxGeometry x="-0.7091" y="-2" relative="1" as="geometry">
            <mxPoint as="offset" />
          </mxGeometry>
        </mxCell>
        <mxCell id="Pf9z77ewuEOddHm5V-Mr-35" value="x&quot;08&quot;" style="text;html=1;strokeColor=none;fillColor=none;align=center;verticalAlign=middle;whiteSpace=wrap;rounded=0;" vertex="1" parent="1">
          <mxGeometry x="450" y="300" width="60" height="30" as="geometry" />
        </mxCell>
        <mxCell id="Pf9z77ewuEOddHm5V-Mr-40" value="Multiply" style="rounded=0;whiteSpace=wrap;html=1;" vertex="1" parent="1">
          <mxGeometry x="155" y="480" width="75" height="70" as="geometry" />
        </mxCell>
        <mxCell id="Pf9z77ewuEOddHm5V-Mr-41" value="Multiply" style="rounded=0;whiteSpace=wrap;html=1;" vertex="1" parent="1">
          <mxGeometry x="280" y="480" width="75" height="70" as="geometry" />
        </mxCell>
        <mxCell id="Pf9z77ewuEOddHm5V-Mr-42" value="Multiply" style="rounded=0;whiteSpace=wrap;html=1;" vertex="1" parent="1">
          <mxGeometry x="400" y="480" width="75" height="70" as="geometry" />
        </mxCell>
        <mxCell id="Pf9z77ewuEOddHm5V-Mr-43" value="Multiply" style="rounded=0;whiteSpace=wrap;html=1;" vertex="1" parent="1">
          <mxGeometry x="520" y="480" width="75" height="70" as="geometry" />
        </mxCell>
        <mxCell id="Pf9z77ewuEOddHm5V-Mr-66" style="edgeStyle=orthogonalEdgeStyle;rounded=0;orthogonalLoop=1;jettySize=auto;html=1;entryX=0.25;entryY=0;entryDx=0;entryDy=0;" edge="1" parent="1" source="Pf9z77ewuEOddHm5V-Mr-56" target="Pf9z77ewuEOddHm5V-Mr-65">
          <mxGeometry relative="1" as="geometry">
            <Array as="points">
              <mxPoint x="380" y="670" />
              <mxPoint x="200" y="670" />
              <mxPoint x="200" y="820" />
              <mxPoint x="365" y="820" />
            </Array>
          </mxGeometry>
        </mxCell>
        <mxCell id="Pf9z77ewuEOddHm5V-Mr-79" value="/4" style="edgeLabel;html=1;align=center;verticalAlign=middle;resizable=0;points=[];" vertex="1" connectable="0" parent="Pf9z77ewuEOddHm5V-Mr-66">
          <mxGeometry x="-0.1115" y="2" relative="1" as="geometry">
            <mxPoint as="offset" />
          </mxGeometry>
        </mxCell>
        <mxCell id="Pf9z77ewuEOddHm5V-Mr-68" style="edgeStyle=orthogonalEdgeStyle;rounded=0;orthogonalLoop=1;jettySize=auto;html=1;entryX=0.75;entryY=0;entryDx=0;entryDy=0;" edge="1" parent="1" source="Pf9z77ewuEOddHm5V-Mr-56" target="Pf9z77ewuEOddHm5V-Mr-65">
          <mxGeometry relative="1" as="geometry">
            <Array as="points">
              <mxPoint x="380" y="670" />
              <mxPoint x="570" y="670" />
              <mxPoint x="570" y="820" />
              <mxPoint x="395" y="820" />
            </Array>
          </mxGeometry>
        </mxCell>
        <mxCell id="Pf9z77ewuEOddHm5V-Mr-80" value="/4" style="edgeLabel;html=1;align=center;verticalAlign=middle;resizable=0;points=[];" vertex="1" connectable="0" parent="Pf9z77ewuEOddHm5V-Mr-68">
          <mxGeometry x="-0.1181" y="1" relative="1" as="geometry">
            <mxPoint as="offset" />
          </mxGeometry>
        </mxCell>
        <mxCell id="Pf9z77ewuEOddHm5V-Mr-73" style="edgeStyle=orthogonalEdgeStyle;rounded=0;orthogonalLoop=1;jettySize=auto;html=1;entryX=0.5;entryY=0;entryDx=0;entryDy=0;" edge="1" parent="1" source="Pf9z77ewuEOddHm5V-Mr-56" target="Pf9z77ewuEOddHm5V-Mr-72">
          <mxGeometry relative="1" as="geometry" />
        </mxCell>
        <mxCell id="Pf9z77ewuEOddHm5V-Mr-75" value="/3" style="edgeLabel;html=1;align=center;verticalAlign=middle;resizable=0;points=[];" vertex="1" connectable="0" parent="Pf9z77ewuEOddHm5V-Mr-73">
          <mxGeometry x="0.28" y="-1" relative="1" as="geometry">
            <mxPoint as="offset" />
          </mxGeometry>
        </mxCell>
        <mxCell id="Pf9z77ewuEOddHm5V-Mr-56" value="&lt;b&gt;XOR&lt;/b&gt;" style="rounded=0;whiteSpace=wrap;html=1;" vertex="1" parent="1">
          <mxGeometry x="350" y="610" width="60" height="20" as="geometry" />
        </mxCell>
        <mxCell id="Pf9z77ewuEOddHm5V-Mr-57" style="edgeStyle=orthogonalEdgeStyle;rounded=0;orthogonalLoop=1;jettySize=auto;html=1;entryX=0.117;entryY=0.05;entryDx=0;entryDy=0;entryPerimeter=0;" edge="1" parent="1" source="Pf9z77ewuEOddHm5V-Mr-40" target="Pf9z77ewuEOddHm5V-Mr-56">
          <mxGeometry relative="1" as="geometry">
            <Array as="points">
              <mxPoint x="193" y="590" />
              <mxPoint x="357" y="590" />
            </Array>
          </mxGeometry>
        </mxCell>
        <mxCell id="Pf9z77ewuEOddHm5V-Mr-61" value="/8" style="edgeLabel;html=1;align=center;verticalAlign=middle;resizable=0;points=[];" vertex="1" connectable="0" parent="Pf9z77ewuEOddHm5V-Mr-57">
          <mxGeometry x="0.1131" y="1" relative="1" as="geometry">
            <mxPoint as="offset" />
          </mxGeometry>
        </mxCell>
        <mxCell id="Pf9z77ewuEOddHm5V-Mr-58" style="edgeStyle=orthogonalEdgeStyle;rounded=0;orthogonalLoop=1;jettySize=auto;html=1;entryX=0.383;entryY=-0.05;entryDx=0;entryDy=0;entryPerimeter=0;" edge="1" parent="1" source="Pf9z77ewuEOddHm5V-Mr-41" target="Pf9z77ewuEOddHm5V-Mr-56">
          <mxGeometry relative="1" as="geometry" />
        </mxCell>
        <mxCell id="Pf9z77ewuEOddHm5V-Mr-62" value="/8" style="edgeLabel;html=1;align=center;verticalAlign=middle;resizable=0;points=[];" vertex="1" connectable="0" parent="Pf9z77ewuEOddHm5V-Mr-58">
          <mxGeometry x="-0.7205" y="2" relative="1" as="geometry">
            <mxPoint as="offset" />
          </mxGeometry>
        </mxCell>
        <mxCell id="Pf9z77ewuEOddHm5V-Mr-59" style="edgeStyle=orthogonalEdgeStyle;rounded=0;orthogonalLoop=1;jettySize=auto;html=1;entryX=0.633;entryY=0.05;entryDx=0;entryDy=0;entryPerimeter=0;" edge="1" parent="1" source="Pf9z77ewuEOddHm5V-Mr-42" target="Pf9z77ewuEOddHm5V-Mr-56">
          <mxGeometry relative="1" as="geometry" />
        </mxCell>
        <mxCell id="Pf9z77ewuEOddHm5V-Mr-63" value="/8" style="edgeLabel;html=1;align=center;verticalAlign=middle;resizable=0;points=[];" vertex="1" connectable="0" parent="Pf9z77ewuEOddHm5V-Mr-59">
          <mxGeometry x="-0.7104" y="2" relative="1" as="geometry">
            <mxPoint as="offset" />
          </mxGeometry>
        </mxCell>
        <mxCell id="Pf9z77ewuEOddHm5V-Mr-60" style="edgeStyle=orthogonalEdgeStyle;rounded=0;orthogonalLoop=1;jettySize=auto;html=1;entryX=0.867;entryY=-0.05;entryDx=0;entryDy=0;entryPerimeter=0;" edge="1" parent="1" source="Pf9z77ewuEOddHm5V-Mr-43" target="Pf9z77ewuEOddHm5V-Mr-56">
          <mxGeometry relative="1" as="geometry">
            <Array as="points">
              <mxPoint x="558" y="590" />
              <mxPoint x="402" y="590" />
            </Array>
          </mxGeometry>
        </mxCell>
        <mxCell id="Pf9z77ewuEOddHm5V-Mr-64" value="/8" style="edgeLabel;html=1;align=center;verticalAlign=middle;resizable=0;points=[];" vertex="1" connectable="0" parent="Pf9z77ewuEOddHm5V-Mr-60">
          <mxGeometry x="-0.1282" y="2" relative="1" as="geometry">
            <mxPoint x="1" as="offset" />
          </mxGeometry>
        </mxCell>
        <mxCell id="Pf9z77ewuEOddHm5V-Mr-81" value="" style="edgeStyle=orthogonalEdgeStyle;rounded=0;orthogonalLoop=1;jettySize=auto;html=1;" edge="1" parent="1" source="Pf9z77ewuEOddHm5V-Mr-65" target="Pf9z77ewuEOddHm5V-Mr-3">
          <mxGeometry relative="1" as="geometry" />
        </mxCell>
        <mxCell id="Pf9z77ewuEOddHm5V-Mr-82" value="/4" style="edgeLabel;html=1;align=center;verticalAlign=middle;resizable=0;points=[];" vertex="1" connectable="0" parent="Pf9z77ewuEOddHm5V-Mr-81">
          <mxGeometry x="-0.3973" y="-2" relative="1" as="geometry">
            <mxPoint as="offset" />
          </mxGeometry>
        </mxCell>
        <mxCell id="Pf9z77ewuEOddHm5V-Mr-65" value="&lt;b&gt;XOR&lt;/b&gt;" style="rounded=0;whiteSpace=wrap;html=1;" vertex="1" parent="1">
          <mxGeometry x="351" y="841" width="60" height="20" as="geometry" />
        </mxCell>
        <mxCell id="Pf9z77ewuEOddHm5V-Mr-69" value="p_extended" style="text;html=1;align=center;verticalAlign=middle;resizable=0;points=[];autosize=1;strokeColor=none;fillColor=none;" vertex="1" parent="1">
          <mxGeometry x="370" y="628" width="90" height="30" as="geometry" />
        </mxCell>
        <mxCell id="Pf9z77ewuEOddHm5V-Mr-70" value="p_extended[3:0]" style="text;html=1;align=center;verticalAlign=middle;resizable=0;points=[];autosize=1;strokeColor=none;fillColor=none;" vertex="1" parent="1">
          <mxGeometry x="450" y="640" width="110" height="30" as="geometry" />
        </mxCell>
        <mxCell id="Pf9z77ewuEOddHm5V-Mr-71" value="p_extended[7:4]" style="text;html=1;align=center;verticalAlign=middle;resizable=0;points=[];autosize=1;strokeColor=none;fillColor=none;" vertex="1" parent="1">
          <mxGeometry x="210" y="640" width="110" height="30" as="geometry" />
        </mxCell>
        <mxCell id="Pf9z77ewuEOddHm5V-Mr-74" style="edgeStyle=orthogonalEdgeStyle;rounded=0;orthogonalLoop=1;jettySize=auto;html=1;entryX=0.5;entryY=0;entryDx=0;entryDy=0;" edge="1" parent="1" source="Pf9z77ewuEOddHm5V-Mr-72" target="Pf9z77ewuEOddHm5V-Mr-65">
          <mxGeometry relative="1" as="geometry" />
        </mxCell>
        <mxCell id="Pf9z77ewuEOddHm5V-Mr-76" value="/4" style="edgeLabel;html=1;align=center;verticalAlign=middle;resizable=0;points=[];" vertex="1" connectable="0" parent="Pf9z77ewuEOddHm5V-Mr-74">
          <mxGeometry x="-0.3611" y="3" relative="1" as="geometry">
            <mxPoint as="offset" />
          </mxGeometry>
        </mxCell>
        <mxCell id="Pf9z77ewuEOddHm5V-Mr-72" value="&lt;font style=&quot;font-size: 32px;&quot;&gt;&lt;b style=&quot;font-size: 22px;&quot;&gt;||&lt;/b&gt;&lt;/font&gt;" style="ellipse;whiteSpace=wrap;html=1;aspect=fixed;" vertex="1" parent="1">
          <mxGeometry x="360" y="730" width="40" height="40" as="geometry" />
        </mxCell>
        <mxCell id="Pf9z77ewuEOddHm5V-Mr-78" style="edgeStyle=orthogonalEdgeStyle;rounded=0;orthogonalLoop=1;jettySize=auto;html=1;entryX=1;entryY=0;entryDx=0;entryDy=0;" edge="1" parent="1" source="Pf9z77ewuEOddHm5V-Mr-77" target="Pf9z77ewuEOddHm5V-Mr-72">
          <mxGeometry relative="1" as="geometry" />
        </mxCell>
        <mxCell id="Pf9z77ewuEOddHm5V-Mr-77" value="&#39;0&#39;" style="text;html=1;strokeColor=none;fillColor=none;align=center;verticalAlign=middle;whiteSpace=wrap;rounded=0;" vertex="1" parent="1">
          <mxGeometry x="415" y="700" width="60" height="30" as="geometry" />
        </mxCell>
      </root>
    </mxGraphModel>
  </diagram>
</mxfile>
